<mxfile host="app.diagrams.net" agent="Mozilla/5.0 (Windows NT 10.0; Win64; x64) AppleWebKit/537.36 (KHTML, like Gecko) Chrome/131.0.0.0 Safari/537.36 Edg/131.0.0.0" version="24.8.9">
  <diagram name="หน้า-1" id="7PaUC-esRgoigV8cVSey">
    <mxGraphModel dx="1094" dy="543" grid="1" gridSize="10" guides="1" tooltips="1" connect="1" arrows="1" fold="1" page="1" pageScale="1" pageWidth="827" pageHeight="1169" math="0" shadow="0">
      <root>
        <mxCell id="0" />
        <mxCell id="1" parent="0" />
        <mxCell id="s0e17Jek-_qbEaV2E3vb-7" value="" style="edgeStyle=orthogonalEdgeStyle;rounded=0;orthogonalLoop=1;jettySize=auto;html=1;" parent="1" source="s0e17Jek-_qbEaV2E3vb-1" edge="1">
          <mxGeometry relative="1" as="geometry">
            <mxPoint x="410" y="390" as="targetPoint" />
          </mxGeometry>
        </mxCell>
        <mxCell id="s0e17Jek-_qbEaV2E3vb-1" value="Stert" style="ellipse;whiteSpace=wrap;html=1;" parent="1" vertex="1">
          <mxGeometry x="350" y="260" width="120" height="80" as="geometry" />
        </mxCell>
        <mxCell id="s0e17Jek-_qbEaV2E3vb-4" value="End" style="ellipse;whiteSpace=wrap;html=1;" parent="1" vertex="1">
          <mxGeometry x="350" y="505" width="120" height="80" as="geometry" />
        </mxCell>
        <mxCell id="IHA3TBoCGSDVdlWaqj8O-2" value="" style="edgeStyle=orthogonalEdgeStyle;rounded=0;orthogonalLoop=1;jettySize=auto;html=1;" edge="1" parent="1" source="IHA3TBoCGSDVdlWaqj8O-1" target="s0e17Jek-_qbEaV2E3vb-4">
          <mxGeometry relative="1" as="geometry" />
        </mxCell>
        <mxCell id="IHA3TBoCGSDVdlWaqj8O-1" value="Hello World" style="shape=parallelogram;perimeter=parallelogramPerimeter;whiteSpace=wrap;html=1;fixedSize=1;" vertex="1" parent="1">
          <mxGeometry x="330" y="390" width="160" height="60" as="geometry" />
        </mxCell>
      </root>
    </mxGraphModel>
  </diagram>
</mxfile>
